<svg width="528" height="763" viewBox="0 0 528 763" fill="none" xmlns="http://www.w3.org/2000/svg">
<g opacity="0.44" clip-path="url(#clip0_751_11561)">
<path d="M415.067 274.894L558.455 138.394L556.437 136.388L412.256 273.681L411.093 310.119L348.63 372.659V405.584C346.393 405.813 344.325 406.875 342.837 408.56C341.349 410.245 340.55 412.429 340.599 414.677C340.648 416.924 341.542 419.071 343.103 420.689C344.663 422.307 346.776 423.278 349.02 423.409C351.264 423.54 353.475 422.821 355.213 421.395C356.951 419.969 358.088 417.941 358.398 415.714C358.708 413.488 358.169 411.226 356.886 409.379C355.604 407.533 353.673 406.237 351.479 405.75V373.809L413.942 311.333L415.067 274.894ZM353.868 410.158C354.996 411.286 355.63 412.817 355.63 414.412C355.63 416.008 354.996 417.538 353.868 418.667C353.028 419.512 351.956 420.088 350.788 420.323C349.619 420.558 348.408 420.441 347.306 419.987C346.205 419.533 345.263 418.762 344.6 417.771C343.937 416.781 343.583 415.617 343.583 414.425C343.584 413.234 343.938 412.07 344.6 411.08C345.262 410.09 346.202 409.318 347.302 408.861C348.402 408.405 349.613 408.285 350.781 408.515C351.95 408.746 353.024 409.317 353.868 410.158ZM436.85 325.719L374.387 388.323V421.899L324.559 471.829C323.24 471.102 321.759 470.72 320.253 470.718C318.198 470.708 316.202 471.407 314.601 472.697C313 473.987 311.893 475.789 311.465 477.8C311.037 479.81 311.315 481.907 312.252 483.737C313.189 485.566 314.727 487.018 316.609 487.846C318.49 488.674 320.599 488.829 322.582 488.285C324.564 487.74 326.298 486.53 327.492 484.857C328.686 483.183 329.268 481.15 329.138 479.098C329.009 477.047 328.177 475.102 326.782 473.592L377.261 423.062V389.473L439.687 326.958L440.849 290.507L584.238 154.019L582.219 152.001L438.064 289.281L436.85 325.719ZM324.508 483.813C323.523 484.798 322.228 485.41 320.842 485.546C319.457 485.683 318.067 485.334 316.909 484.561C315.752 483.787 314.898 482.636 314.495 481.303C314.091 479.971 314.161 478.54 314.694 477.254C315.227 475.968 316.19 474.906 317.418 474.25C318.646 473.594 320.063 473.384 321.428 473.656C322.794 473.928 324.023 474.665 324.906 475.741C325.789 476.817 326.271 478.167 326.271 479.559C326.274 480.349 326.119 481.133 325.816 481.863C325.514 482.593 325.069 483.256 324.508 483.813ZM322.668 378.14L383.624 317.107C383.015 316.018 382.82 314.746 383.075 313.524C383.33 312.303 384.017 311.214 385.011 310.46C386.005 309.705 387.239 309.336 388.484 309.418C389.729 309.501 390.902 310.031 391.787 310.911C392.672 311.791 393.21 312.96 393.301 314.205C393.392 315.45 393.029 316.685 392.281 317.684C391.533 318.682 390.449 319.377 389.229 319.64C388.009 319.903 386.736 319.716 385.643 319.113L324.252 380.58L261.5 395.945C261.517 397.13 261.122 398.284 260.382 399.209C259.642 400.135 258.604 400.775 257.445 401.019C256.285 401.264 255.077 401.098 254.027 400.55C252.976 400.002 252.149 399.106 251.686 398.015C251.223 396.925 251.153 395.707 251.489 394.571C251.824 393.435 252.544 392.45 253.526 391.786C254.507 391.122 255.688 390.82 256.868 390.93C258.048 391.041 259.152 391.559 259.992 392.394C260.239 392.645 260.461 392.919 260.657 393.211L322.668 378.14ZM150.584 381.973C152.339 381.963 154.053 381.437 155.511 380.46C156.97 379.484 158.109 378.099 158.786 376.479L190.574 383.723L262.044 312.176L291.2 319.407L572.312 36.3878L570.306 34.3691L290.318 316.264L261.163 309.033L189.615 380.58L159.374 373.681C159.374 373.477 159.374 373.285 159.374 373.081C159.371 371.328 158.849 369.615 157.873 368.158C156.897 366.702 155.512 365.567 153.891 364.898C152.271 364.229 150.488 364.055 148.769 364.399C147.05 364.742 145.471 365.588 144.233 366.828C142.994 368.069 142.151 369.649 141.81 371.368C141.468 373.088 141.645 374.87 142.316 376.49C142.988 378.109 144.124 379.493 145.582 380.467C147.04 381.441 148.754 381.96 150.507 381.96L150.584 381.973ZM146.316 368.826C146.875 368.267 147.538 367.823 148.269 367.519C148.999 367.216 149.782 367.06 150.573 367.059C151.363 367.059 152.146 367.214 152.877 367.516C153.608 367.818 154.272 368.261 154.832 368.82C155.391 369.379 155.835 370.042 156.138 370.772C156.442 371.503 156.598 372.285 156.598 373.076C156.599 373.867 156.444 374.65 156.142 375.381C155.84 376.112 155.397 376.776 154.838 377.335C153.993 378.153 152.926 378.705 151.771 378.924C150.616 379.144 149.421 379.02 148.335 378.569C147.249 378.119 146.318 377.36 145.658 376.387C144.997 375.414 144.635 374.269 144.617 373.094C144.596 371.502 145.207 369.967 146.316 368.826ZM216.829 330.05C215.842 329.205 215.214 328.015 215.073 326.723C214.932 325.431 215.288 324.134 216.069 323.096C216.851 322.058 217.998 321.356 219.279 321.133C220.559 320.911 221.876 321.185 222.962 321.899L259.042 285.78L290.689 292.168L328.456 254.35C327.861 253.255 327.681 251.981 327.949 250.764C328.218 249.546 328.917 248.467 329.918 247.724C330.92 246.981 332.155 246.625 333.398 246.72C334.641 246.815 335.808 247.356 336.684 248.243C337.56 249.131 338.086 250.304 338.166 251.548C338.246 252.792 337.874 254.023 337.118 255.015C336.363 256.007 335.275 256.692 334.054 256.946C332.833 257.199 331.562 257.003 330.474 256.394L291.622 295.298L259.975 288.91L224.98 323.956C225.716 325.041 226.007 326.367 225.793 327.661C225.578 328.954 224.875 330.116 223.828 330.905C222.781 331.695 221.47 332.051 220.167 331.902C218.865 331.752 217.67 331.107 216.829 330.101V330.05ZM328.111 533.654C329.917 534.992 332.161 535.601 334.396 535.36C336.631 535.119 338.693 534.045 340.172 532.351C341.651 530.658 342.437 528.47 342.376 526.223C342.314 523.976 341.409 521.834 339.839 520.225C338.27 518.615 336.152 517.656 333.907 517.537C331.662 517.419 329.455 518.15 327.725 519.586C325.995 521.021 324.869 523.055 324.571 525.283C324.273 527.512 324.825 529.77 326.118 531.61L305.548 552.18L307.566 566.962L200.002 674.526L202.021 676.531L310.62 567.933L308.601 553.138L328.111 533.654ZM329.12 522.257C330.104 521.273 331.399 520.661 332.784 520.524C334.169 520.388 335.559 520.736 336.716 521.508C337.874 522.281 338.727 523.431 339.132 524.763C339.537 526.094 339.468 527.525 338.936 528.811C338.405 530.097 337.444 531.16 336.217 531.817C334.991 532.474 333.574 532.686 332.209 532.417C330.844 532.147 329.614 531.413 328.729 530.338C327.845 529.264 327.36 527.916 327.357 526.525C327.366 524.942 328 523.427 329.12 522.308V522.257ZM19 672.302L21.0187 674.321L55.617 639.685V625.439L106.85 574.193V561.097L127.101 540.847L139.532 542.585L221.403 460.714C223.274 461.961 225.546 462.457 227.767 462.104C229.988 461.751 231.994 460.574 233.386 458.808C234.778 457.042 235.454 454.816 235.279 452.574C235.103 450.332 234.09 448.239 232.44 446.711C230.791 445.182 228.626 444.332 226.377 444.328C224.128 444.324 221.961 445.168 220.306 446.691C218.652 448.213 217.631 450.303 217.449 452.545C217.266 454.786 217.934 457.014 219.32 458.784L138.523 539.505L126.091 537.832L104.001 559.909V573.018L52.7679 624.251V638.535L19 672.302ZM222.029 448.985C222.588 448.426 223.251 447.981 223.981 447.678C224.712 447.375 225.495 447.219 226.285 447.218C227.076 447.218 227.859 447.373 228.59 447.675C229.321 447.977 229.985 448.42 230.544 448.979C231.104 449.537 231.548 450.201 231.851 450.931C232.154 451.661 232.311 452.444 232.311 453.235C232.312 454.026 232.157 454.809 231.854 455.54C231.552 456.27 231.109 456.935 230.551 457.494C229.996 458.059 229.334 458.508 228.603 458.813C227.872 459.118 227.088 459.273 226.296 459.27C225.118 459.257 223.97 458.898 222.993 458.24C222.016 457.581 221.254 456.65 220.8 455.563C220.346 454.476 220.221 453.28 220.439 452.122C220.657 450.964 221.21 449.896 222.029 449.049V448.985ZM230.487 407.321L232.672 384.643L245.077 372.225L269.442 368.392L285.949 351.898C287.805 353.166 290.07 353.69 292.294 353.364C294.518 353.038 296.538 351.886 297.952 350.138C299.365 348.39 300.068 346.174 299.921 343.93C299.774 341.687 298.788 339.582 297.159 338.033C295.529 336.484 293.377 335.606 291.129 335.572C288.881 335.539 286.703 336.354 285.029 337.854C283.355 339.354 282.307 341.429 282.094 343.667C281.881 345.905 282.518 348.141 283.879 349.93L268.139 365.696L243.787 369.529L229.989 383.315L227.804 405.993L73.555 560.216L75.5736 562.234L230.487 407.321ZM286.703 340.258C287.516 339.437 288.548 338.868 289.676 338.616C290.804 338.365 291.98 338.444 293.065 338.842C294.149 339.24 295.097 339.942 295.794 340.863C296.492 341.784 296.91 342.886 296.999 344.038C297.088 345.19 296.844 346.344 296.296 347.361C295.749 348.379 294.92 349.217 293.909 349.777C292.899 350.338 291.748 350.596 290.595 350.521C289.442 350.446 288.335 350.041 287.405 349.355L286.128 348.077C285.273 346.922 284.863 345.498 284.971 344.065C285.078 342.632 285.698 341.285 286.715 340.271L286.703 340.258ZM153.305 616.789L199.504 570.577L197.486 555.795L310.694 442.638C310.095 441.563 309.904 440.308 310.156 439.104C310.407 437.899 311.085 436.826 312.064 436.081C313.044 435.336 314.259 434.97 315.487 435.049C316.715 435.129 317.873 435.648 318.749 436.513C319.624 437.377 320.159 438.529 320.253 439.756C320.348 440.982 319.997 442.202 319.265 443.191C318.532 444.18 317.468 444.871 316.267 445.138C315.065 445.405 313.808 445.23 312.726 444.644L200.514 556.817L202.519 571.599L155.324 618.795L153.305 616.789ZM229.12 591.237L177.874 642.47H164.778L144.528 662.771L146.201 675.203L63.3978 758.019L61.3791 755.949L143.148 674.181L141.474 661.749L163.59 639.685H176.698L227.932 588.451H242.215L274.437 556.217C273.88 555.12 273.736 553.859 274.033 552.665C274.331 551.471 275.049 550.424 276.056 549.717C277.063 549.01 278.291 548.69 279.515 548.816C280.739 548.942 281.877 549.505 282.719 550.402C283.561 551.299 284.051 552.47 284.099 553.7C284.147 554.929 283.75 556.135 282.981 557.095C282.212 558.055 281.122 558.706 279.911 558.927C278.701 559.148 277.451 558.925 276.392 558.299L243.391 591.301L229.12 591.237ZM499.071 368.545L497.397 356.114L580.214 273.297L582.219 275.316L500.451 357.085L502.125 369.516L480.009 391.696H466.9L415.667 442.929H401.383L369.161 475.164C369.719 476.26 369.863 477.522 369.565 478.716C369.268 479.91 368.55 480.956 367.543 481.663C366.536 482.37 365.307 482.69 364.083 482.564C362.859 482.439 361.722 481.875 360.88 480.978C360.038 480.081 359.548 478.91 359.499 477.681C359.451 476.451 359.848 475.246 360.618 474.285C361.387 473.325 362.477 472.675 363.687 472.453C364.898 472.232 366.147 472.455 367.206 473.081L400.208 440.08H414.492L465.725 388.847H478.833L499.071 368.545ZM387.38 533.117L385.196 555.795L372.777 568.214L348.425 572.047L331.918 588.579C330.063 587.31 327.797 586.787 325.573 587.113C323.349 587.439 321.329 588.591 319.916 590.339C318.502 592.087 317.799 594.303 317.946 596.546C318.093 598.789 319.079 600.895 320.708 602.444C322.338 603.993 324.49 604.871 326.738 604.904C328.986 604.937 331.164 604.123 332.838 602.623C334.512 601.123 335.56 599.048 335.773 596.81C335.986 594.572 335.349 592.336 333.988 590.547L349.792 574.742L374.144 570.909L387.93 557.111L390.127 534.433L544.312 380.223L542.293 378.204L387.38 533.117ZM331.164 600.18C330.352 601.002 329.321 601.573 328.193 601.826C327.066 602.078 325.89 602.001 324.805 601.605C323.719 601.208 322.771 600.508 322.072 599.587C321.374 598.667 320.954 597.566 320.864 596.414C320.773 595.262 321.015 594.108 321.561 593.09C322.108 592.072 322.935 591.232 323.945 590.671C324.954 590.109 326.104 589.849 327.257 589.923C328.41 589.996 329.518 590.399 330.449 591.083L331.727 592.361C332.588 593.513 333.004 594.937 332.898 596.372C332.792 597.806 332.172 599.154 331.152 600.167L331.164 600.18Z" fill="#D2DCE2"/>
<circle cx="64" cy="755" r="5" fill="#D2DCE2"/>
<circle cx="153" cy="619" r="5" fill="#D2DCE2"/>
<circle cx="19" cy="673" r="5" fill="#D2DCE2"/>
<circle cx="74" cy="561" r="5" fill="#D2DCE2"/>
<circle cx="203.5" cy="673.5" r="5.5" fill="#D2DCE2"/>
<path d="M437.501 609.006L580.889 472.506L578.871 470.5L434.69 607.793L433.527 644.231L371.064 706.771V739.696C368.827 739.925 366.759 740.987 365.271 742.672C363.783 744.357 362.984 746.541 363.033 748.789C363.082 751.036 363.976 753.183 365.536 754.801C367.097 756.419 369.21 757.39 371.454 757.521C373.698 757.652 375.909 756.933 377.647 755.507C379.385 754.081 380.522 752.053 380.832 749.826C381.142 747.6 380.602 745.338 379.32 743.491C378.038 741.645 376.107 740.349 373.913 739.862V707.921L436.376 645.445L437.501 609.006ZM376.302 744.27C377.43 745.398 378.064 746.929 378.064 748.524C378.064 750.12 377.43 751.65 376.302 752.779C375.462 753.624 374.39 754.2 373.222 754.435C372.053 754.67 370.842 754.553 369.74 754.099C368.639 753.645 367.697 752.874 367.034 751.883C366.371 750.893 366.017 749.729 366.017 748.537C366.018 747.346 366.372 746.182 367.034 745.192C367.696 744.202 368.636 743.43 369.736 742.973C370.836 742.517 372.047 742.397 373.215 742.627C374.384 742.858 375.458 743.429 376.302 744.27ZM340.989 700.58L401.945 639.547C401.335 638.458 401.14 637.186 401.395 635.964C401.65 634.743 402.338 633.654 403.332 632.9C404.326 632.145 405.559 631.775 406.804 631.858C408.049 631.941 409.223 632.471 410.108 633.351C410.993 634.23 411.531 635.4 411.621 636.645C411.712 637.889 411.35 639.125 410.602 640.124C409.854 641.122 408.77 641.817 407.55 642.08C406.33 642.343 405.056 642.156 403.963 641.553L342.573 703.02L306.415 715.956C306.432 717.141 306.037 718.294 305.297 719.22C304.558 720.145 303.519 720.785 302.36 721.029C301.201 721.274 299.993 721.108 298.942 720.56C297.892 720.012 297.064 719.116 296.601 718.026C296.138 716.935 296.069 715.717 296.404 714.581C296.74 713.445 297.46 712.461 298.441 711.797C299.422 711.133 300.604 710.83 301.783 710.941C302.963 711.052 304.067 711.569 304.908 712.404C305.154 712.655 305.377 712.929 305.572 713.222L340.989 700.58ZM184.943 738.604C186.699 738.594 188.413 738.068 189.871 737.091C191.33 736.114 192.469 734.73 193.146 733.11L224.933 740.354L296.404 668.807L325.56 676.038L606.672 393.019L604.666 391L324.678 672.895L295.523 665.664L223.975 737.211L193.734 730.312C193.734 730.108 193.734 729.916 193.734 729.712C193.731 727.958 193.209 726.245 192.233 724.789C191.257 723.332 189.872 722.198 188.251 721.529C186.631 720.86 184.848 720.686 183.129 721.029C181.41 721.373 179.831 722.219 178.593 723.459C177.354 724.7 176.511 726.28 176.169 727.999C175.828 729.719 176.005 731.501 176.676 733.12C177.348 734.74 178.484 736.124 179.942 737.098C181.4 738.071 183.114 738.591 184.867 738.591L184.943 738.604ZM180.676 725.457C181.235 724.897 181.898 724.453 182.629 724.15C183.359 723.847 184.142 723.691 184.933 723.69C185.723 723.69 186.506 723.845 187.237 724.147C187.968 724.449 188.632 724.892 189.192 725.451C189.751 726.009 190.195 726.673 190.498 727.403C190.801 728.133 190.958 728.916 190.958 729.707C190.959 730.498 190.804 731.281 190.502 732.012C190.2 732.742 189.757 733.407 189.198 733.966C188.352 734.784 187.286 735.336 186.131 735.555C184.976 735.774 183.781 735.651 182.695 735.2C181.609 734.749 180.678 733.991 180.018 733.018C179.357 732.045 178.995 730.9 178.977 729.724C178.955 728.133 179.567 726.598 180.676 725.457ZM251.189 686.681C250.202 685.835 249.574 684.646 249.433 683.354C249.292 682.062 249.648 680.765 250.429 679.727C251.211 678.688 252.358 677.987 253.638 677.764C254.919 677.542 256.236 677.815 257.321 678.529L293.402 642.411L325.049 648.799L362.816 610.981C362.22 609.886 362.041 608.612 362.309 607.395C362.578 606.177 363.277 605.098 364.278 604.355C365.279 603.612 366.515 603.255 367.758 603.351C369.001 603.446 370.168 603.987 371.044 604.874C371.92 605.761 372.446 606.935 372.526 608.179C372.606 609.423 372.234 610.654 371.478 611.646C370.723 612.638 369.635 613.323 368.414 613.577C367.193 613.83 365.922 613.634 364.834 613.025L325.981 651.929L294.334 645.541L259.34 680.586C260.076 681.672 260.367 682.998 260.152 684.292C259.938 685.585 259.234 686.747 258.187 687.536C257.14 688.326 255.83 688.682 254.527 688.533C253.225 688.383 252.029 687.738 251.189 686.732V686.681Z" fill="#D2DCE2"/>
</g>
<defs>
<clipPath id="clip0_751_11561">
<rect width="576" height="763" fill="white"/>
</clipPath>
</defs>
</svg>
