<svg width="381" height="697" viewBox="0 0 381 697" fill="none" xmlns="http://www.w3.org/2000/svg">
<circle cx="336" cy="692" r="5" transform="rotate(-90 336 692)" fill="#C4C4C4"/>
<rect x="378" y="693" width="630" height="2" transform="rotate(-90 378 693)" fill="#C4C4C4"/>
<path d="M302.571 22.8938L380.12 63.2284L379.197 65.0028L301.451 24.6105L302.571 22.8938Z" fill="#C4C4C4"/>
<rect x="332" y="691" width="48" height="2" fill="#C4C4C4"/>
<circle cx="91" cy="269.003" r="5" transform="rotate(-90 91 269.003)" fill="#C4C4C4"/>
<path d="M24 268L24 79.5L26 80.9595L26 268H24Z" fill="#C4C4C4"/>
<path d="M24 79.5005L108.397 36.0358L109.32 37.8101L25.6191 81.1986L24 79.5005Z" fill="#C4C4C4"/>
<path d="M0.015625 60.8433L115.865 0.87242L116.788 2.64674L1.70159 62.655L0.015625 60.8433Z" fill="#C4C4C4"/>
<rect x="24" y="268.003" width="65" height="2" fill="#C4C4C4"/>
<circle cx="116" cy="470.946" r="5" transform="rotate(-90 116 470.946)" fill="#C4C4C4"/>
<path d="M0 470L0 61L2 62.8161L2 470H0Z" fill="#C4C4C4"/>
<rect y="470" width="112" height="2" fill="#C4C4C4"/>
</svg>
